<svg xmlns="http://www.w3.org/2000/svg" viewBox="0 0 512 512">
  <path d="m 316.66602,0 c -15.54771,0 -29.03351,9.7131054 -34.99219,22.636719 a 30.003,30.003 0 0 0 -0.58399,1.353515 l -24.70507,61.34375 -121.71875,0 C 112.26181,85.333984 96,104.62622 96,124.75 l 0,71 c 0,20.12378 16.26181,39.41797 38.66602,39.41797 l 32.92382,0 -67.722652,145.77539 0.447262,-0.92188 C 97.453486,385.66747 96.02554,391.77257 96,397.96094 a 30.003,30.003 0 0 0 0,0.12304 l 0,74.5 c 0,20.12379 16.26185,39.41797 38.66602,39.41797 l 60.66796,0 c 15.54771,0 29.03351,-9.71506 34.99219,-22.63867 a 30.003,30.003 0 0 0 0.58399,-1.35156 l 24.70507,-61.34375 121.71875,0 c 22.40417,0 38.66797,-19.29223 38.66797,-39.41602 l 0,-71.00195 c 0,-20.12378 -16.26376,-39.41602 -38.66797,-39.41602 l -35.44336,0 70.86329,-175.16601 -1.07032,2.34765 C 414.60114,98.278632 416.02921,92.067655 416,85.777344 l 0,-46.361328 C 416,19.292229 399.73817,0 377.33398,0 L 316.66602,0 Z M 331.27148,60 356,60 356,81.966797 269.58203,295.58203 a 30.003,30.003 0 0 0 27.81055,41.25195 l 58.60937,0 0,29.83399 -120.64453,0 a 30.003,30.003 0 0 0 -27.82812,18.79297 l -26.80078,66.54101 -24.72852,0 0,-49.47851 85.81445,-184.7168 a 30.003,30.003 0 0 0 -27.20703,-42.63867 l -58.60742,0 0,-29.83399 120.64258,0 A 30.003,30.003 0 0 0 304.4707,126.54102 L 331.27148,60 Z" fill="#014375"/>
</svg>
