<svg xmlns="http://www.w3.org/2000/svg" viewBox="0 0 512 512">
  <path d="m 90.005,10.666499 -90.005,0 0,490.667001 90.005,0 z" fill="#20c4ff"/>
  <path d="m 328.12482,10.666669 c -101.37365,0 -184.33332,82.845582 -184.33332,184.125001 0,101.1352 83.0142,183.75 184.33332,183.75 101.15228,0 183.87501,-82.7501 183.87501,-183.75 0,-101.206129 -82.69929,-184.125001 -183.87501,-184.125001 z m 0,60 c 68.57355,0 123.87501,55.399811 123.87501,124.125001 0,68.43156 -55.24233,123.70834 -123.87501,123.70834 -68.93017,0 -124.33332,-55.23356 -124.33332,-123.70834 0,-68.6876 55.4577,-124.125001 124.33332,-124.125001 z" fill="#20c4ff"/>
</svg>
