<svg xmlns="http://www.w3.org/2000/svg" viewBox="0 0 512 512">
  <path d="m 459.77594,165.31201 c 0,-4.62933 -0.17067,-9.13067 -0.384,-13.568 20.82131,-14.78399 38.33597,-33.23732 52.60797,-54.48531 l 0,-0.0213 c -19.05066,8.34133 -39.31731,13.888 -60.47997,16.576 21.76,-12.992 38.37864,-33.40799 46.18664,-58.00532 -20.28798,12.096 -42.68798,20.62933 -66.55998,25.40799 -19.26398,-20.52265 -46.71998,-33.21598 -76.67198,-33.21598 -58.11198,0 -104.89595,47.16798 -104.89595,104.98129 0,8.32 0.704,16.32 2.432,23.936 -87.25331,-4.26671 -164.47995,-46.08003 -216.3626,-109.80267 -9.04533,15.72266 -14.37866,33.70665 -14.37866,53.05598 0,36.35199 18.70933,68.56531 46.63465,87.23197 -16.87466,-0.32 -33.40799,-5.22667 -47.42398,-12.928 l 0,1.152 c 0,51.00799 36.37332,93.37596 84.09597,103.14663 -16.04266,4.39467 -35.79732,4.224 -47.38132,1.664 13.58933,41.55733 52.20265,72.12798 98.0693,73.13065 -35.71199,27.92533 -81.06664,44.75731 -130.15462,44.75731 -8.59733,0 -16.85333,-0.384 -25.10932,-1.42933 46.50665,29.97333 101.58929,47.10399 161.02394,47.10399 193.15193,0 298.75191,-159.99995 298.75191,-298.6879 z" fill="#55acee"/>
</svg>
