<svg xmlns="http://www.w3.org/2000/svg" viewBox="0 0 512 512">
  <path d="m 354.47461,48 c -58.112,0 -104.89649,47.16714 -104.89649,104.98047 0,8.32 0.70365,16.3215 2.43165,23.9375 C 164.75643,172.6513 87.5311,130.8379 35.64844,67.11523 26.6031,82.8379 21.26953,100.82059 21.26953,120.16992 c 0,36.352 18.70943,68.56576 46.63477,87.23242 -16.87467,-0.32 -33.40783,-5.2264 -47.42383,-12.92773 l 0,1.15234 c 0,51.008 36.37303,93.37582 84.0957,103.14649 -16.04266,4.39466 -35.79686,4.22406 -47.38086,1.66406 13.58934,41.55733 52.2017,72.12819 98.06836,73.13086 -35.712,27.92533 -81.06629,44.75781 -130.15429,44.75781 C 16.51204,418.32617 8.256,417.94182 0,416.89648 46.50667,446.86982 101.58877,464 161.02344,464 c 193.152,0 298.75195,-159.9995 298.75195,-298.6875 0,-4.62933 -0.16948,-9.13103 -0.38281,-13.56836 C 480.21391,136.96014 497.728,118.50581 512,97.25781 l 0,-0.0195 c -19.05067,8.34133 -39.3178,13.88622 -60.48047,16.57422 21.76,-12.992 38.3795,-33.40657 46.1875,-58.00391 -20.288,12.096 -42.68855,20.62954 -66.56055,25.40821 C 411.88248,60.69413 384.42661,48 354.47461,48 Z m -0.0156,43.83398 c 17.57195,0 33.56197,7.45598 44.75,19.375 a 43.850031,43.850031 0 0 0 8.70704,7.08204 43.850031,43.850031 0 0 0 9.04296,22.41796 43.850031,43.850031 0 0 0 -1.375,13.16602 c 0.2096,4.35976 0.375,8.07052 0.375,11.41602 0,58.21587 -22.93514,123.51836 -66,172.375 -43.06485,48.85664 -104.45021,82.5 -188.91796,82.5 -0.23263,0 -0.43357,-0.0814 -0.66602,-0.082 7.01047,-4.45201 15.37061,-6.87279 21.875,-11.95898 A 43.850031,43.850031 0 0 0 156.20898,329.75 c -5.98255,-0.13077 -10.48538,-3.84886 -15.91796,-5.58398 A 43.850031,43.850031 0 0 0 113.375,255.83398 c -8.16158,-1.67099 -13.93652,-7.7613 -20.625,-12.375 A 43.850031,43.850031 0 0 0 95.95898,173.75 c 45.88314,26.7468 97.77744,44.21383 153.91602,46.95898 a 43.850031,43.850031 0 0 0 44.875,-53.5 c -0.82174,-3.6218 -1.33398,-8.30844 -1.33398,-14.20898 0,-34.16995 26.66594,-61.16602 61.04296,-61.16602 z" fill="#014375"/>
</svg>
